<?xml version='1.0' encoding='utf-8'?>
<svg xmlns="http://www.w3.org/2000/svg" fill="none" viewBox="0 0 1200 800" width="1200" height="800"><defs><clipPath id="assetClipPath_8VPs25DL"><path d="m0 0 h 23.008 v 43.419 h -23.008 v -43.419 z" id="path_7yLG__Km" fill="#ffffff" /></clipPath></defs><g transform="translate(451 120)" data-asset-index="0"><g clip-path="url(#assetClipPath_8VPs25DL)" transform="scale(12.99547983310153 12.897579400723187)" data-asset-index="0"><path d="m17.334 6.919c-.3-.3-.8-.2-1.1.1-5.7 6.9-9.4 14.8-11.5 20.2 1.7-11.1 3.1-23.6 1.2-25.4-.3-.3-.8-.4-1.2-.4-1 .2-2.9.6-4.1 18.8-.6 9.3-.7 18.9-.6 21.1 0 .3 0 .6.1.8v.1c.1.2.2.3.3.4 0 .4.2.8.6.8h.1c.4 0 .7-.3.8-.6.1-.4.2-.9.2-1.4 3.9-4.5 15.2-17.8 14.1-21.5-.2-.6-.6-1-1.2-1.2-1.5-.4-4.1.2-9.4 9.9 2-5.3 5.7-13.5 11.6-20.6.5-.3.5-.8.1-1.1z" fill="#032789" id="JZnVbs07esi_YDHIGOFNE" /><ellipse cx="18.108" cy="4.9" fill="#8F88FB" rx="4.9" ry="4.9" id="fvc1euePpqjey4vk-NQt" /></g></g></svg>