<?xml version='1.0' encoding='utf-8'?>
<svg xmlns="http://www.w3.org/2000/svg" fill="none" viewBox="0 0 1200 800" width="1200" height="800"><defs><clipPath id="assetClipPath_1LzNT_HQ"><path d="m0 0 h 99.156 v 88.3 h -99.156 v -88.3 z" id="path_H8bED8U1" fill="#ffffff" /></clipPath></defs><g transform="translate(285 120)" data-asset-index="0"><g clip-path="url(#assetClipPath_1LzNT_HQ)" transform="scale(6.3536245915527045 6.342015855039638)" data-asset-index="0"><path d="m98.738.1c-.4-.2-.9-.1-1.1.3-.1.1-1.2 2.2-3.5 5.4-3.6-1.5-20-7.3-44.4-.4-.3.1-.6.4-.6.7s.2.7.5.8c.1.1 9.9 4.6 23.7 4.6 5.7 0 12-.8 18.7-3-3.9 4.9-9.8 11.2-17.8 16.7-1.6-.8-11.4-5-26.2-1.4-.3.1-.6.4-.6.7s.1.7.4.8c.4.2 6.6 3.4 15.3 3.4 2.1 0 4.4-.2 6.7-.6-11.1 6.5-25.6 11.1-43.6 9.3-2.2-1.3-11.1-6.1-25.5-4.5-.3 0-.6.3-.7.6s0 .7.3.9c.4.3 8.2 5.5 19.2 5.5 2.2 0 4.5-.2 6.9-.7.1 0 .2-.1.3-.1 2.6.2 5 .4 7.5.4h.6c-2.2 1.6-6.1 4.7-10.6 9.8-6.3 7.1-15 19.4-20.8 37.9-.1.3 0 .7.3.9.1.1.3.2.5.2.1 0 .3 0 .4-.1.3-.2 25.9-15.9 33.2-48.7 6.1-.3 11.8-1.3 17-2.9-4.6 4.6-14.3 16.5-18.4 37.7-.1.3.1.7.4.8.1.1.3.1.4.1.2 0 .4-.1.5-.2.2-.1 18.2-14.4 20.8-39.8 9.3-3.4 16.9-8.3 23-13.4-2.5 4.6-6.4 14.3-5.5 28.6 0 .3.2.6.6.7h.2c.2 0 .5-.1.6-.3.4-.5 10.2-13.5 7.3-31.7 0-.1 0-.2-.1-.2 4.4-4.1 7.7-8.1 10-11.2.3-.1.5-.4.5-.7 2.5-3.4 3.7-5.6 3.8-5.7.4-.5.2-1-.2-1.2zm-47.8 24.8c10-1.9 17.4-.1 20.7 1.1-9 2.4-17 .3-20.7-1.1zm-47.5 9.4c10.1-.6 17.2 2.1 20.4 3.7-9.1 1.2-16.8-1.9-20.4-3.7zm35 37.8c4.4-20.4 14.4-31.6 18.2-35.3-2.5 19-13.8 31.2-18.2 35.3zm39.1-24.3c-.4-13.6 3.8-22.6 6-26.3 1.3 12.5-3.5 22.3-6 26.3z" fill="#817AEC" id="WRerkLbt7IZnmBrDOnW0n" /></g></g></svg>