<?xml version='1.0' encoding='utf-8'?>
<svg xmlns="http://www.w3.org/2000/svg" fill="none" viewBox="0 0 1200 800" width="1200" height="800"><defs><clipPath id="assetClipPath_FBIj-8SO"><path d="m0 0 h 75.367 v 114.877 h -75.367 v -114.877 z" id="path_mLD5J-pL" fill="#ffffff" /></clipPath></defs><g transform="translate(418 120)" data-asset-index="0"><g clip-path="url(#assetClipPath_FBIj-8SO)" transform="scale(4.842968407923892 4.874779111571507)" data-asset-index="0"><path d="m74.01 52.48c-2.1-3.6-4.9-5.9-8.3-6.8-4.3-1.1-8.6.1-11.2 1.2 6.9-10.5 12-19.7 13-25.4 1.6-8.9-2.7-17-10.6-20.2-2.19-.89-4.34-1.28-6.41-1.28-7.75 0-14.4 5.5-18.19 11.18-1.2 1.8-2.4 3.7-3.5 5.9-.45.75-.46.8-.8 1.4-13.3 25.7-25.4 74.5-27.8 85-.1.4.2.9.6 1 .05.01.1.02.15.02-.03 1.29-.05 2.59-.08 3.88l-.67 1.3c-.2.4-.1.9.3 1.1.09.09.17.1.32.1-.01.67-.03 1.35-.04 2.02-.35.41-.55.64-.58.68-.3.3-.3.9.1 1.1.2.1.3.2.5.2s.5-.1.6-.3c.1-.12.3-.34.58-.67 1.85-.05 3.7-.09 5.55-.14 0 .1.03.2.07.31.1.3.4.5.7.5.1 0 .2 0 .3-.1 7.8-3.3 22.6-11.4 36.4-21.2.14-.08 3.26-2.13 5.1-3.5 7.7-5.9 14.7-12.1 19.3-18.2.1-.1.2-.2.2-.3 2.2-2.9 3.9-5.8 4.9-8.6.57-1.67.85-3.28.85-4.81 0-1.95-.45-3.77-1.35-5.39z" fill="#FFF0FF" id="CXSI4BUUWYO8Na_aiJuo3" /><path d="m74.01 52.48c-2.1-3.6-4.9-5.9-8.3-6.8-4.3-1.1-8.6.1-11.2 1.2 6.9-10.5 12-19.7 13-25.4 1.6-8.9-2.7-17-10.6-20.2-2.19-.89-4.34-1.28-6.41-1.28-7.75 0-14.4 5.5-18.19 11.18-1.2 1.8-2.4 3.7-3.5 5.9-.45.75-.46.8-.8 1.4-13.3 25.7-25.4 74.5-27.8 85-.1.4.2.9.6 1 .05.01.1.02.15.02.25 0 .52-.12.68-.32.08-.09.14-.19.17-.3 2.8-11.5 17.2-69.9 31.9-91.8.6-.8 1.1-1.6 1.7-2.3l4 23.8c0 .1.1.2.1.3l-37.07 71.49-1.56 3.01-.67 1.3c-.2.4-.1.9.3 1.1.09.09.17.1.32.1h.08c.3 0 .6-.2.7-.4l1.86-3.59 53.64-103.71c5.5 2.7 10.2 9.1 8.6 18-3.03 17.27-47.01 70.52-61.17 87.29-1.75 2.09-3.05 3.62-3.75 4.43-.35.41-.55.64-.58.68-.3.3-.3.9.1 1.1.2.1.3.2.5.2s.5-.1.6-.3c.1-.12.3-.34.58-.67.69-.8 1.88-2.19 3.47-4.08 1.72-2.02 3.88-4.62 6.35-7.65.1 0 .3-.1.4-.2l22.4-19.7h.1l21.8-.1c-15.5 13.4-37.5 26.2-48.5 30.8-.11.06-.21.13-.27.21-.15.15-.22.35-.2.58 0 .1.03.2.07.31.1.3.4.5.7.5.1 0 .2 0 .3-.1 7.8-3.3 22.6-11.4 36.4-21.2.14-.08 3.26-2.13 5.1-3.5 7.7-5.9 14.7-12.1 19.3-18.2.1-.1.2-.2.2-.3 2.2-2.9 3.9-5.8 4.9-8.6.57-1.67.85-3.28.85-4.81-0-1.95-.45-3.77-1.35-5.39zm-29.9-27.8-3.5 6.8-3.9-23.3c1.3-1.5 2.7-2.7 4.1-3.6l3.3 20zm1.3-2.4-3.1-18.6c4.8-2.6 9.6-2.6 13.4-1.2zm-27.5 72.5c10.7-12.9 24.4-30.3 34.7-45.5.1 0 .2 0 .2-.1.1 0 6.3-3.7 12.3-2.1 1.7.4 3.1 1.3 4.4 2.4zm40.6-14.2-21.9.1 10.5-9.2 20 .2c-2.4 2.9-5.3 5.9-8.6 8.9zm14.4-18.5c-.9 2.5-2.5 5.2-4.5 8l-19.5-.2 21.8-19.2c.6.7 1.2 1.5 1.7 2.5 1.5 2.5 1.6 5.5.5 8.9z" fill="#8F88FB" id="vI2VQqHbZJPuY8hQ1uC8T" /></g></g></svg>